<svg width="193" height="33" viewBox="0 0 193 33" fill="none" xmlns="http://www.w3.org/2000/svg">
<g clip-path="url(#clip0_237:113)">
<path d="M32.2732 3.47048C30.5259 3.90848 28.8732 4.65776 27.3957 5.68176C25.9592 6.78125 24.7738 8.17021 23.9176 9.75717L23.5078 10.5802C23.3802 10.8069 23.2987 11.0562 23.2679 11.314C23.2219 11.5164 23.2219 11.7264 23.2679 11.9287C23.297 12.021 23.3409 12.1081 23.3978 12.1866C23.5431 12.55 23.8267 12.8421 24.1874 12.9997C24.5549 13.1855 24.9793 13.228 25.3768 13.1187C25.5719 13.0336 25.7511 12.9162 25.9065 12.7716C26.0508 12.6265 26.1752 12.4631 26.2763 12.2857L27.0559 11.076C27.0559 10.9768 27.1559 10.8975 27.1959 10.8281L27.2958 10.6496C27.9279 9.64623 28.7573 8.77951 29.7345 8.10124C30.7628 7.44823 31.8898 6.9628 33.0728 6.66342C34.4236 6.25689 35.8453 6.1351 37.2464 6.30586C38.6475 6.47663 39.9971 6.93618 41.2086 7.65501C42.8598 8.60491 44.2294 9.96998 45.1791 11.6126C46.1289 13.2552 46.6252 15.1172 46.6181 17.0109C46.611 18.9045 46.1008 20.7628 45.1387 22.3984C44.1767 24.0339 42.7969 25.3889 41.1386 26.3266H41.0287H40.9187C40.6921 26.3803 40.4534 26.3484 40.2491 26.2373C40.0143 26.128 39.8315 25.9325 39.7393 25.692V25.5829V25.4738C39.7009 25.3476 39.6881 25.2152 39.7018 25.0841C39.7156 24.953 39.7555 24.8259 39.8193 24.7103C39.9543 24.4542 40.1631 24.2436 40.419 24.1055C41.9315 23.1346 43.1154 21.7355 43.8172 20.0895C44.5456 18.411 44.6761 16.5365 44.187 14.7746C43.9025 13.7061 43.4012 12.7066 42.7138 11.837C42.0263 10.9674 41.1673 10.2462 40.1891 9.71753C39.2478 9.14441 38.1969 8.77094 37.1029 8.62076C36.0088 8.47057 34.8953 8.54693 33.8324 8.84493L33.5825 8.90442L33.3926 8.96391C32.2642 9.23777 31.2121 9.75961 30.3142 10.4909C29.4327 11.2887 28.7105 12.2441 28.1853 13.3071L26.4762 16.2818C26.3669 16.4784 26.2977 16.6944 26.2727 16.9175C26.2477 17.1406 26.2673 17.3664 26.3304 17.582C26.3936 17.7975 26.499 17.9986 26.6406 18.1737C26.7823 18.3487 26.9574 18.4943 27.1559 18.6021C27.5523 18.8184 28.019 18.87 28.4537 18.7454C28.8883 18.6209 29.2555 18.3304 29.4747 17.9378L31.1938 14.8936L31.3337 14.6457C31.3749 14.5765 31.4253 14.5131 31.4836 14.4573C31.8164 13.9238 32.2236 13.4398 32.693 13.0195C33.1717 12.609 33.7395 12.3137 34.3521 12.1568H34.4921L34.682 12.0973C35.9427 11.7929 37.2734 11.9869 38.3925 12.6383C39.5117 13.2897 40.3316 14.3474 40.6789 15.5877C40.9995 16.5964 40.9678 17.6829 40.5889 18.6715C40.2537 19.4326 39.7518 20.1101 39.1197 20.6547L38.38 21.2993C38.1302 21.4976 37.9203 21.686 37.7304 21.8545C37.0725 22.3663 36.5764 23.0546 36.3011 23.8377C36.0698 24.7053 36.0698 25.6176 36.3011 26.4852V26.5943V26.6736C36.2977 26.7 36.2977 26.7266 36.3011 26.753L36.3611 26.9711L36.4211 27.1992C36.8729 28.1375 37.6107 28.911 38.53 29.4104C38.9951 29.6936 39.5171 29.8723 40.0593 29.9339C40.6015 29.9956 41.1507 29.9388 41.6683 29.7674L41.8383 29.7178H41.9482H42.0581C43.5651 29.0937 44.9322 28.179 46.08 27.0266C47.2279 25.8742 48.1336 24.5072 48.7447 23.0048C50.1969 19.8959 50.439 16.3641 49.4243 13.0889C48.4057 9.56525 46.0302 6.58089 42.8114 4.78102C39.5926 2.98115 35.7891 2.51037 32.2232 3.47048H32.2732Z" fill="#0898D7"/>
<path d="M8.37571 3.20299H8.21579H8.10584H7.9959C6.48764 3.82692 5.11914 4.74153 3.96966 5.89384C2.82018 7.04616 1.91256 8.41324 1.29937 9.91599C-0.146404 13.0264 -0.388316 16.5559 0.619724 19.8319C1.64052 23.3562 4.01795 26.3407 7.23837 28.1404C10.4588 29.9402 14.2636 30.4107 17.8308 29.4503C19.5774 29.01 21.2296 28.2609 22.7083 27.239C24.1416 26.139 25.3237 24.75 26.1765 23.1636L26.5863 22.3406C26.7251 22.119 26.8074 21.8671 26.8261 21.6068C26.8721 21.4044 26.8721 21.1944 26.8261 20.9921C26.8012 20.8981 26.757 20.8104 26.6962 20.7342C26.551 20.3708 26.2673 20.0787 25.9066 19.9211C25.5394 19.7343 25.1147 19.6918 24.7172 19.8021C24.5221 19.8872 24.343 20.0045 24.1875 20.1492C24.0432 20.2942 23.9188 20.4577 23.8177 20.6351L23.0481 21.8448C22.9964 21.9245 22.9497 22.0073 22.9082 22.0927C22.8714 22.1503 22.8381 22.2098 22.8082 22.2712C22.1736 23.2726 21.3446 24.1388 20.3695 24.8196C19.3376 25.4725 18.2073 25.9579 17.0212 26.2574C15.6703 26.6633 14.2488 26.7848 12.8478 26.614C11.4468 26.4433 10.0972 25.984 8.88544 25.2658C7.23213 24.3171 5.8607 22.952 4.9099 21.3086C3.95909 19.6652 3.46265 17.8019 3.47076 15.907C3.47888 14.0122 3.99126 12.1531 4.95611 10.5178C5.92095 8.88245 7.30402 7.52895 8.9654 6.5942H9.07534H9.18528C9.42476 6.53873 9.67643 6.5728 9.89218 6.68988C10.1079 6.80696 10.2726 6.99885 10.3547 7.22883V7.33789V7.44695C10.3932 7.5731 10.4059 7.70561 10.3922 7.83671C10.3785 7.96781 10.3385 8.09488 10.2747 8.21049C10.1397 8.46664 9.93096 8.67717 9.67504 8.81534C8.17493 9.77844 6.9932 11.1577 6.27679 12.7817C5.49245 14.6467 5.42446 16.7322 6.08569 18.6436C6.74693 20.555 8.0915 22.1596 9.86492 23.1537C10.8063 23.7268 11.8571 24.1002 12.9512 24.2504C14.0452 24.4006 15.1588 24.3243 16.2216 24.0263L16.4715 23.9569H16.6714C17.7977 23.6852 18.8469 23.163 19.7398 22.4299C20.6213 21.6321 21.3435 20.6767 21.8687 19.6137L23.5778 16.5894C23.6903 16.3941 23.7622 16.1784 23.7894 15.9551C23.8165 15.7318 23.7984 15.5054 23.736 15.2892C23.6736 15.073 23.5682 14.8713 23.426 14.6961C23.2838 14.5209 23.1078 14.3757 22.9082 14.2691C22.5112 14.0554 22.0454 14.0054 21.6115 14.1297C21.1776 14.254 20.8104 14.5428 20.5894 14.9335L18.8703 17.9776L18.7303 18.2255C18.6891 18.2947 18.6387 18.3581 18.5804 18.4139C18.2476 18.9473 17.8405 19.4314 17.371 19.8517C16.8947 20.2656 16.326 20.5612 15.7119 20.7144H15.572L15.3821 20.7739C14.1285 21.0639 12.8105 20.8629 11.7026 20.2127C10.5948 19.5624 9.78253 18.5132 9.43515 17.2835C9.11454 16.2748 9.14623 15.1883 9.5251 14.1996C9.86033 13.4386 10.3622 12.7611 10.9943 12.2165C11.2442 11.9884 11.4941 11.7703 11.734 11.572L12.3836 11.0167C13.0387 10.5044 13.5313 9.81596 13.8029 9.03352C14.0342 8.16593 14.0342 7.25353 13.8029 6.38594V6.27688C13.8005 6.25049 13.8005 6.22393 13.8029 6.19754V6.11826C13.7889 6.04405 13.7688 5.97107 13.7429 5.90007L13.683 5.67203C13.2311 4.73378 12.4934 3.96025 11.574 3.46081C11.0937 3.18496 10.5574 3.01869 10.0042 2.9741C9.45096 2.9295 8.89467 3.00769 8.37571 3.20299Z" fill="#0898D7"/>
<path d="M58.0499 24.6511V21.2301H69.2042C69.7343 21.2301 70.2428 21.0211 70.6176 20.6492C70.9925 20.2773 71.2031 19.7729 71.2031 19.2469C71.2074 18.9779 71.1564 18.7108 71.0533 18.4619C70.9502 18.213 70.7971 17.9875 70.6034 17.7992C70.4143 17.613 70.1895 17.4662 69.9423 17.3674C69.6952 17.2687 69.4306 17.22 69.1642 17.2241H62.8474C62.1274 17.2377 61.4123 17.1038 60.7467 16.8308C60.0812 16.5579 59.4796 16.1516 58.9794 15.6375C58.4594 15.1207 58.0539 14.5018 57.7889 13.8205C57.5238 13.1393 57.4051 12.4105 57.4402 11.6811C57.4507 10.2405 58.0322 8.86192 59.059 7.84325C60.0857 6.82458 61.4754 6.24769 62.9274 6.2373H72.5624V9.69793H62.9274C62.3972 9.69793 61.8888 9.9069 61.5139 10.2788C61.139 10.6507 60.9284 11.1551 60.9284 11.6811C60.9242 11.9502 60.9751 12.2172 61.0782 12.4661C61.1813 12.715 61.3344 12.9405 61.5281 13.1288C61.7156 13.3186 61.9396 13.4691 62.1869 13.5713C62.4341 13.6735 62.6995 13.7253 62.9674 13.7238H69.2841C70.742 13.7238 72.1403 14.2983 73.1712 15.3211C74.2021 16.3439 74.7813 17.7311 74.7813 19.1775C74.7813 20.6239 74.2021 22.0111 73.1712 23.0339C72.1403 24.0566 70.742 24.6312 69.2841 24.6312L58.0499 24.6511Z" fill="#0898D7"/>
<path d="M76.9102 0H80.3584V3.32185H76.9102V0ZM76.9102 6.27676H80.3584V24.6509H76.9102V6.27676Z" fill="#0898D7"/>
<path d="M83.3468 24.6511V13.585C83.3468 12.6244 83.5377 11.6733 83.9085 10.786C84.2793 9.89872 84.8228 9.09266 85.5078 8.41392C86.1929 7.73518 87.0061 7.19711 87.901 6.83044C88.7959 6.46376 89.7548 6.27566 90.723 6.27697C91.8025 6.25215 92.8731 6.4756 93.8511 6.92975C94.8291 7.38391 95.6878 8.05645 96.3601 8.89477C97.3324 7.74068 98.6393 6.91143 100.103 6.5196C101.567 6.12776 103.117 6.19233 104.542 6.70455C105.968 7.21677 107.2 8.15178 108.071 9.38269C108.943 10.6136 109.411 12.0808 109.413 13.585V24.6511H105.965V13.585C105.961 12.8148 105.727 12.0632 105.293 11.4244C104.86 10.7856 104.246 10.2882 103.528 9.99469C102.81 9.70119 102.021 9.62466 101.26 9.77475C100.498 9.92485 99.7986 10.2949 99.2486 10.8383C98.8777 11.1937 98.5844 11.6209 98.3867 12.0933C98.189 12.5658 98.0911 13.0735 98.0992 13.585V24.6511H94.6509V13.585C94.6566 13.0738 94.5577 12.5668 94.3601 12.0947C94.1626 11.6225 93.8705 11.1952 93.5015 10.8383C93.1376 10.4764 92.7053 10.1893 92.2294 9.99342C91.7534 9.79753 91.2432 9.69668 90.728 9.69668C90.2127 9.69668 89.7025 9.79753 89.2266 9.99342C88.7507 10.1893 88.3183 10.4764 87.9544 10.8383C87.5855 11.1952 87.2934 11.6225 87.0958 12.0947C86.8983 12.5668 86.7993 13.0738 86.805 13.585V24.6511H83.3468Z" fill="#0898D7"/>
<path d="M121.197 6.50503C122.688 6.4876 124.161 6.82728 125.491 7.49529C126.821 8.1633 127.969 9.13987 128.838 10.3421C129.706 11.5443 130.269 12.9368 130.479 14.401C130.689 15.8653 130.54 17.3583 130.044 18.7532C129.549 20.148 128.721 21.4036 127.631 22.4133C126.542 23.423 125.223 24.157 123.787 24.5529C122.35 24.9488 120.839 24.9951 119.38 24.6876C117.922 24.3802 116.56 23.7281 115.41 22.7869V33.0002H111.962V15.7069C111.965 13.2724 112.939 10.9378 114.671 9.21356C116.403 7.48928 118.753 6.51551 121.207 6.50503H121.197ZM121.197 21.468C121.964 21.4784 122.726 21.3343 123.435 21.0446C124.145 20.7548 124.788 20.3255 125.325 19.7823C125.876 19.2556 126.311 18.6218 126.603 17.9206C126.896 17.2193 127.039 16.4657 127.024 15.7069C127.028 14.9467 126.88 14.1932 126.589 13.49C126.297 12.7869 125.868 12.148 125.326 11.6104C124.785 11.0728 124.141 10.6471 123.432 10.358C122.723 10.0689 121.964 9.92202 121.197 9.92596C120.434 9.91505 119.677 10.0589 118.973 10.3488C118.268 10.6387 117.631 11.0685 117.099 11.6117C116.552 12.1453 116.12 12.7832 115.828 13.487C115.536 14.1908 115.39 14.9459 115.4 15.7069C115.399 16.463 115.548 17.212 115.839 17.9109C116.129 18.6098 116.556 19.2449 117.095 19.78C117.633 20.3151 118.273 20.7397 118.977 21.0293C119.681 21.319 120.435 21.468 121.197 21.468Z" fill="#0898D7"/>
<path d="M135.51 21.9538C134 20.4507 133.062 18.4745 132.856 16.362C132.65 14.2496 133.188 12.1317 134.38 10.3692C135.572 8.6067 137.343 7.30877 139.391 6.69655C141.439 6.08434 143.638 6.19576 145.613 7.01181C147.588 7.82787 149.216 9.29806 150.22 11.1718C151.225 13.0456 151.543 15.2069 151.121 17.2875C150.7 19.3682 149.564 21.2393 147.907 22.582C146.25 23.9247 144.176 24.6559 142.036 24.651C140.821 24.6673 139.614 24.4364 138.492 23.9725C137.369 23.5087 136.354 22.8216 135.51 21.9538ZM137.939 11.3835C137.392 11.9172 136.959 12.5551 136.667 13.2589C136.375 13.9626 136.23 14.7178 136.239 15.4788C136.243 16.6158 136.585 17.7265 137.223 18.6709C137.862 19.6153 138.767 20.3512 139.826 20.7859C140.885 21.2206 142.05 21.3346 143.175 21.1137C144.299 20.8927 145.332 20.3467 146.144 19.5443C146.698 19.0212 147.137 18.3898 147.433 17.6901C147.729 16.9904 147.875 16.2375 147.863 15.4788C147.865 14.3372 147.526 13.2208 146.888 12.2707C146.25 11.3205 145.343 10.5794 144.28 10.141C143.218 9.70264 142.048 9.58668 140.919 9.80785C139.791 10.029 138.753 10.5774 137.939 11.3835Z" fill="#0898D7"/>
<path d="M156.389 21.9539C154.879 20.451 153.941 18.4753 153.735 16.3634C153.529 14.2514 154.067 12.1337 155.258 10.3713C156.449 8.60883 158.219 7.31054 160.266 6.69762C162.314 6.0847 164.513 6.19509 166.487 7.00992C168.462 7.82474 170.091 9.29365 171.097 11.1664C172.102 13.0391 172.422 15.1997 172.002 17.2803C171.582 19.3608 170.448 21.2325 168.793 22.5765C167.138 23.9205 165.064 24.6536 162.926 24.651C161.708 24.6687 160.5 24.4385 159.375 23.9746C158.251 23.5107 157.235 22.8229 156.389 21.9539ZM158.818 11.3836C158.271 11.9172 157.838 12.5551 157.546 13.2589C157.254 13.9627 157.109 14.7178 157.119 15.4788C157.122 16.6159 157.464 17.7265 158.102 18.6709C158.741 19.6153 159.646 20.3512 160.706 20.7859C161.765 21.2206 162.93 21.3346 164.054 21.1137C165.178 20.8928 166.211 20.3467 167.023 19.5443C167.577 19.0212 168.016 18.3899 168.312 17.6902C168.608 16.9905 168.755 16.2375 168.743 15.4788C168.744 14.3373 168.405 13.2208 167.767 12.2707C167.129 11.3206 166.222 10.5794 165.159 10.1411C164.097 9.70268 162.927 9.58673 161.799 9.80789C160.67 10.0291 159.632 10.5774 158.818 11.3836Z" fill="#0898D7"/>
<path d="M174.47 24.6508V15.4786C174.47 13.0408 175.446 10.7028 177.183 8.97893C178.921 7.25509 181.278 6.28662 183.735 6.28662C186.192 6.28662 188.549 7.25509 190.286 8.97893C192.024 10.7028 193 13.0408 193 15.4786V24.6508H189.552V15.4786C189.552 13.9481 188.939 12.4802 187.848 11.3979C186.757 10.3156 185.278 9.70761 183.735 9.70761C182.192 9.70761 180.712 10.3156 179.622 11.3979C178.531 12.4802 177.918 13.9481 177.918 15.4786V24.6508H174.47Z" fill="#0898D7"/>
<path d="M118.649 32.8514C118.463 32.8613 118.277 32.8309 118.105 32.7624C117.932 32.6939 117.777 32.5889 117.649 32.4548L118.149 31.9689C118.211 32.039 118.288 32.0949 118.374 32.1325C118.461 32.1702 118.554 32.1888 118.649 32.187C119.018 32.187 119.258 31.9689 119.258 31.5227V28.9644H120.018V31.5127C120.028 31.6929 120 31.8733 119.934 32.0417C119.869 32.2101 119.768 32.3628 119.639 32.4895C119.509 32.6162 119.354 32.714 119.183 32.7764C119.012 32.8388 118.83 32.8643 118.649 32.8514Z" fill="#636262"/>
<path d="M123.226 32.435C122.961 32.6987 122.602 32.8483 122.227 32.8515C122.032 32.8571 121.839 32.823 121.658 32.7514C121.478 32.6798 121.314 32.5721 121.177 32.435C120.777 32.0384 120.787 31.5625 120.787 30.8981C120.787 30.2337 120.787 29.7479 121.177 29.3612C121.312 29.2209 121.475 29.1103 121.656 29.0369C121.837 28.9634 122.031 28.9286 122.227 28.9348C122.413 28.936 122.598 28.9744 122.77 29.0476C122.942 29.1209 123.097 29.2275 123.226 29.3612C123.616 29.7479 123.606 30.2337 123.606 30.8981C123.606 31.5625 123.616 32.0384 123.226 32.435ZM122.656 29.8172C122.598 29.7482 122.524 29.6935 122.441 29.6574C122.358 29.6213 122.267 29.6048 122.177 29.609C122.085 29.6054 121.993 29.6222 121.908 29.6583C121.823 29.6943 121.748 29.7486 121.687 29.8172C121.537 29.9759 121.497 30.1544 121.497 30.8981C121.497 31.6418 121.497 31.8202 121.687 31.9789C121.748 32.0476 121.823 32.1019 121.908 32.1379C121.993 32.174 122.085 32.1908 122.177 32.1871C122.267 32.1914 122.358 32.1749 122.441 32.1388C122.524 32.1027 122.598 32.0479 122.656 31.9789C122.806 31.8202 122.856 31.6418 122.856 30.8981C122.856 30.1544 122.806 29.9759 122.656 29.8172Z" fill="#636262"/>
<path d="M126.015 32.8217H124.406V28.9644H125.965C126.119 28.9439 126.275 28.9572 126.423 29.0034C126.571 29.0495 126.707 29.1273 126.822 29.2313C126.936 29.3354 127.026 29.4631 127.085 29.6055C127.144 29.7478 127.171 29.9014 127.164 30.0552C127.014 30.139 126.889 30.2623 126.805 30.4116C126.721 30.5608 126.679 30.7303 126.685 30.9013C126.692 31.0724 126.745 31.2384 126.84 31.3812C126.935 31.5241 127.068 31.6382 127.224 31.7112C127.233 31.8671 127.207 32.023 127.148 32.1678C127.089 32.3126 126.998 32.4426 126.883 32.5487C126.767 32.6548 126.629 32.7342 126.479 32.7814C126.329 32.8286 126.171 32.8424 126.015 32.8217ZM125.885 29.6387H125.145V30.5312H125.885C126.004 30.5312 126.118 30.4841 126.203 30.4004C126.287 30.3168 126.335 30.2033 126.335 30.0849C126.335 29.9666 126.287 29.8531 126.203 29.7694C126.118 29.6858 126.004 29.6387 125.885 29.6387ZM125.935 31.2054H125.145V32.1475H125.935C126.001 32.1547 126.068 32.1476 126.131 32.1267C126.194 32.1058 126.252 32.0715 126.3 32.0262C126.349 31.981 126.387 31.9258 126.412 31.8646C126.437 31.8033 126.448 31.7374 126.444 31.6714C126.446 31.6063 126.434 31.5416 126.408 31.4815C126.383 31.4215 126.345 31.3676 126.296 31.3234C126.248 31.2793 126.191 31.2459 126.128 31.2255C126.066 31.2052 126 31.1983 125.935 31.2054Z" fill="#636262"/>
<path d="M130.752 31.374H130.003V32.8217H129.243V28.9644H130.752C130.921 28.9492 131.091 28.9691 131.252 29.0227C131.412 29.0763 131.56 29.1626 131.685 29.2759C131.81 29.3893 131.91 29.5273 131.978 29.6811C132.047 29.8349 132.082 30.0011 132.082 30.1692C132.082 30.3373 132.047 30.5035 131.978 30.6573C131.91 30.8111 131.81 30.9491 131.685 31.0625C131.56 31.1758 131.412 31.2621 131.252 31.3157C131.091 31.3693 130.921 31.3892 130.752 31.374ZM130.752 29.6387H130.043V30.6997H130.752C130.829 30.7101 130.906 30.7041 130.98 30.6822C131.054 30.6603 131.122 30.623 131.18 30.5727C131.238 30.5225 131.285 30.4605 131.317 30.3909C131.349 30.3213 131.365 30.2457 131.365 30.1692C131.365 30.0928 131.349 30.0172 131.317 29.9476C131.285 29.878 131.238 29.8159 131.18 29.7657C131.122 29.7154 131.054 29.6781 130.98 29.6562C130.906 29.6343 130.829 29.6283 130.752 29.6387Z" fill="#636262"/>
<path d="M134.73 32.8214L133.971 31.2845H133.401V32.8214H132.641V28.9641H134.16C134.323 28.9532 134.486 28.9756 134.639 29.0302C134.792 29.0847 134.932 29.17 135.05 29.2808C135.169 29.3917 135.262 29.5256 135.326 29.6742C135.39 29.8227 135.422 29.9827 135.42 30.1441C135.421 30.3623 135.353 30.5755 135.226 30.7534C135.099 30.9313 134.918 31.065 134.71 31.1357L135.58 32.7916L134.73 32.8214ZM134.14 29.6384H133.401V30.63H134.11C134.182 30.6355 134.253 30.6263 134.32 30.6027C134.387 30.5792 134.449 30.5419 134.501 30.4933C134.553 30.4447 134.594 30.3859 134.621 30.3206C134.648 30.2553 134.662 30.1851 134.66 30.1144C134.658 30.0493 134.642 29.9852 134.615 29.9261C134.587 29.8669 134.548 29.8137 134.5 29.7695C134.452 29.7253 134.395 29.691 134.333 29.6685C134.272 29.646 134.206 29.6357 134.14 29.6384Z" fill="#636262"/>
<path d="M136.239 32.8216V28.9644H138.798V29.6386H136.999V30.5212H138.528V31.1954H136.999V32.1275H138.798V32.8018L136.239 32.8216Z" fill="#636262"/>
<path d="M141.047 31.374H140.297V32.8217H139.538V28.9644H141.047C141.216 28.9492 141.386 28.9691 141.546 29.0227C141.707 29.0763 141.854 29.1626 141.98 29.2759C142.105 29.3893 142.205 29.5273 142.273 29.6811C142.341 29.8349 142.377 30.0011 142.377 30.1692C142.377 30.3373 142.341 30.5035 142.273 30.6573C142.205 30.8111 142.105 30.9491 141.98 31.0625C141.854 31.1758 141.707 31.2621 141.546 31.3157C141.386 31.3693 141.216 31.3892 141.047 31.374ZM141.047 29.6387H140.337V30.6997H141.047C141.123 30.7101 141.201 30.7041 141.275 30.6822C141.349 30.6603 141.417 30.623 141.475 30.5727C141.533 30.5225 141.58 30.4605 141.612 30.3909C141.643 30.3213 141.66 30.2457 141.66 30.1692C141.66 30.0928 141.643 30.0172 141.612 29.9476C141.58 29.878 141.533 29.8159 141.475 29.7657C141.417 29.7154 141.349 29.6781 141.275 29.6562C141.201 29.6343 141.123 29.6283 141.047 29.6387Z" fill="#636262"/>
<path d="M144.905 32.8216L144.675 32.1374H143.296L143.056 32.8216H142.266L143.686 28.9644H144.275L145.694 32.8216H144.905ZM143.995 30.1047L143.506 31.5028H144.505L143.995 30.1047Z" fill="#636262"/>
<path d="M148.233 32.8214L147.484 31.2845H146.934V32.8214H146.174V28.9641H147.694C147.856 28.9532 148.019 28.9756 148.172 29.0302C148.325 29.0847 148.465 29.17 148.583 29.2808C148.702 29.3917 148.796 29.5256 148.859 29.6742C148.923 29.8227 148.955 29.9827 148.953 30.1441C148.954 30.3608 148.887 30.5724 148.761 30.7499C148.636 30.9274 148.459 31.0621 148.253 31.1357L149.113 32.7916L148.233 32.8214ZM147.644 29.6384H146.934V30.63H147.644C147.715 30.6355 147.787 30.6262 147.855 30.6027C147.923 30.5793 147.985 30.5422 148.037 30.4937C148.09 30.4453 148.132 30.3866 148.16 30.3213C148.189 30.256 148.203 30.1856 148.203 30.1144C148.2 30.0461 148.182 29.9793 148.151 29.918C148.121 29.8567 148.078 29.8021 148.026 29.7576C147.974 29.7131 147.913 29.6796 147.847 29.6592C147.781 29.6387 147.712 29.6316 147.644 29.6384Z" fill="#636262"/>
<path d="M151.951 32.8216L151.721 32.1374H150.392L150.162 32.8216H149.373L150.782 28.9644H151.372L152.791 32.8216H151.951ZM151.052 30.1047L150.562 31.5028H151.561L151.052 30.1047Z" fill="#636262"/>
<path d="M154.39 29.6386V32.8216H153.63V29.6386H152.631V28.9644H155.389V29.6386H154.39Z" fill="#636262"/>
<path d="M156.019 32.8216V28.9644H156.769V32.8216H156.019Z" fill="#636262"/>
<path d="M160.027 32.4349C159.891 32.5729 159.727 32.6812 159.547 32.7529C159.366 32.8246 159.172 32.8581 158.978 32.8513C158.602 32.8492 158.243 32.6994 157.978 32.4349C157.588 32.0382 157.598 31.5623 157.598 30.8979C157.598 30.2335 157.598 29.7477 157.978 29.361C158.107 29.2268 158.262 29.1199 158.434 29.0467C158.606 28.9734 158.791 28.9353 158.978 28.9346C159.173 28.9272 159.368 28.9614 159.549 29.0349C159.73 29.1085 159.893 29.2196 160.027 29.361C160.283 29.8336 160.416 30.3616 160.416 30.8979C160.416 31.4342 160.283 31.9622 160.027 32.4349ZM159.467 29.8171C159.406 29.7484 159.331 29.6941 159.246 29.6581C159.161 29.622 159.07 29.6052 158.978 29.6089C158.886 29.6066 158.794 29.624 158.71 29.6599C158.625 29.6959 158.55 29.7495 158.488 29.8171C158.348 29.9757 158.308 30.1542 158.308 30.8979C158.308 31.6416 158.308 31.8201 158.488 31.9787C158.55 32.0463 158.625 32.0999 158.71 32.1358C158.794 32.1718 158.886 32.1892 158.978 32.187C159.07 32.1906 159.161 32.1738 159.246 32.1378C159.331 32.1017 159.406 32.0474 159.467 31.9787C159.617 31.8201 159.657 31.6416 159.657 30.8979C159.657 30.1542 159.617 29.9757 159.467 29.8171Z" fill="#636262"/>
<path d="M163.485 32.8216L161.946 30.4617V32.8216H161.197V28.9644H161.866L163.405 31.3243V28.9644H164.165V32.8216H163.485Z" fill="#636262"/>
<path d="M167.843 31.374H167.093V32.8217H166.384V28.9644H167.893C168.062 28.9492 168.232 28.9691 168.392 29.0227C168.553 29.0763 168.701 29.1626 168.826 29.2759C168.951 29.3893 169.051 29.5273 169.119 29.6811C169.187 29.8349 169.223 30.0011 169.223 30.1692C169.223 30.3373 169.187 30.5035 169.119 30.6573C169.051 30.8111 168.951 30.9491 168.826 31.0625C168.701 31.1758 168.553 31.2621 168.392 31.3157C168.232 31.3693 168.062 31.3892 167.893 31.374H167.843ZM167.843 29.6387H167.133V30.6997H167.843C167.919 30.7101 167.997 30.7041 168.071 30.6822C168.145 30.6603 168.213 30.623 168.271 30.5727C168.329 30.5225 168.376 30.4605 168.408 30.3909C168.44 30.3213 168.456 30.2457 168.456 30.1692C168.456 30.0928 168.44 30.0172 168.408 29.9476C168.376 29.878 168.329 29.8159 168.271 29.7657C168.213 29.7154 168.145 29.6781 168.071 29.6562C167.997 29.6343 167.919 29.6283 167.843 29.6387Z" fill="#636262"/>
<path d="M169.762 32.8216V28.9644H170.522V32.1474H172.281V32.8216H169.762Z" fill="#636262"/>
<path d="M175.109 32.8216L174.879 32.1374H173.5L173.27 32.8216H172.481L173.89 28.9644H174.49L175.899 32.8216H175.109ZM174.21 30.1047L173.72 31.5028H174.719L174.21 30.1047Z" fill="#636262"/>
<path d="M177.538 29.6386V32.8216H176.778V29.6386H175.779V28.9644H178.567V29.6386H177.538Z" fill="#636262"/>
<path d="M179.937 29.6385V30.6301H181.466V31.2945H179.937V32.8612H179.177V29.0039H181.736V29.6782L179.937 29.6385Z" fill="#636262"/>
<path d="M184.634 32.4347C184.352 32.7026 183.976 32.8521 183.585 32.8521C183.194 32.8521 182.818 32.7026 182.535 32.4347C182.146 32.038 182.156 31.5621 182.156 30.8977C182.156 30.2334 182.156 29.7475 182.535 29.3608C182.816 29.0882 183.192 28.9355 183.585 28.9355C183.977 28.9355 184.354 29.0882 184.634 29.3608C184.89 29.8334 185.023 30.3614 185.023 30.8977C185.023 31.434 184.89 31.962 184.634 32.4347ZM184.075 29.8169C184.011 29.7484 183.934 29.6937 183.848 29.6563C183.762 29.6189 183.669 29.5996 183.575 29.5996C183.481 29.5996 183.388 29.6189 183.302 29.6563C183.216 29.6937 183.139 29.7484 183.075 29.8169C182.925 29.9755 182.895 30.154 182.895 30.8977C182.895 31.6414 182.895 31.8199 183.075 31.9785C183.139 32.047 183.216 32.1017 183.302 32.1391C183.388 32.1765 183.481 32.1959 183.575 32.1959C183.669 32.1959 183.762 32.1765 183.848 32.1391C183.934 32.1017 184.011 32.047 184.075 31.9785C184.224 31.8199 184.264 31.6414 184.264 30.8977C184.264 30.154 184.224 29.9755 184.075 29.8169Z" fill="#636262"/>
<path d="M187.863 32.8214L187.103 31.2845H186.553V32.8214H185.794V28.9641H187.373C187.535 28.9532 187.698 28.9756 187.851 29.0302C188.004 29.0847 188.144 29.17 188.263 29.2808C188.381 29.3917 188.475 29.5256 188.538 29.6742C188.602 29.8227 188.634 29.9827 188.632 30.1441C188.631 30.3616 188.562 30.5734 188.435 30.7508C188.308 30.9281 188.129 31.0625 187.923 31.1357L188.792 32.7916L187.863 32.8214ZM187.273 29.6384H186.553V30.63H187.273C187.344 30.6355 187.415 30.6263 187.483 30.6027C187.55 30.5792 187.611 30.5419 187.663 30.4933C187.715 30.4447 187.756 30.3859 187.783 30.3206C187.811 30.2553 187.824 30.1851 187.823 30.1144C187.82 30.0466 187.804 29.9799 187.774 29.9187C187.745 29.8574 187.703 29.8028 187.652 29.7582C187.6 29.7135 187.54 29.6799 187.475 29.6593C187.41 29.6387 187.341 29.6316 187.273 29.6384Z" fill="#636262"/>
<path d="M192.13 32.8216V30.5806L191.381 32.0383H190.871L190.121 30.5806V32.8216H189.372V28.9644H190.121L191.121 31.0566L192.12 28.9644H192.86V32.8216H192.13Z" fill="#636262"/>
</g>
<defs>
<clipPath id="clip0_237:113">
<rect width="193" height="33" fill="white"/>
</clipPath>
</defs>
</svg>
